<svg xmlns="http://www.w3.org/2000/svg" viewBox="0 0 128 128">
  <defs>
    <linearGradient id="g" x1="0%" y1="0%" x2="100%" y2="100%">
      <stop offset="0%" stop-color="#38bdf8" />
      <stop offset="100%" stop-color="#0ea5e9" />
    </linearGradient>
  </defs>
  <rect width="128" height="128" rx="28" fill="#0f172a" />
  <path d="M42 100c-4 0-6-3-5-7l12-47c1-4 4-6 8-6h12c12 0 19 7 19 18c0 8-4 15-11 18l11 15c3 4 1 9-4 9h-11c-3 0-5-1-7-4l-7-11h-3l-3 11c-1 4-3 4-6 4h-6zM68 62c3 0 5-2 5-5s-2-5-5-5h-4l-3 10h7z" fill="url(#g)" />
</svg>
